Coordinates
version=1
nRows=14
nColumns=24
inDegrees=yes

Units are S.I. units (second, meters, Newtons, ...)
Angles are in degrees.

endheader
time	pelvis_tilt	pelvis_list	pelvis_rotation	pelvis_tx	pelvis_ty	pelvis_tz	hip_flexion_r	hip_adduction_r	hip_rotation_r	knee_angle_r	ankle_angle_r	subtalar_angle_r	mtp_angle_r	hip_flexion_l	hip_adduction_l	hip_rotation_l	knee_angle_l	ankle_angle_l	subtalar_angle_l	mtp_angle_l	lumbar_extension	lumbar_bending	lumbar_rotation
      7.09500000	     39.68580915	      3.61097219	      5.76067692	      1.52067731	      0.67944487	     -0.29306837	    -19.02356677	     -3.90573649	    -14.42438773	    -56.99039912	     13.47137631	      0.25504453	      0.00000000	    -33.28421614	      2.12813700	      1.08624620	    -15.33273708	     16.34068997	      9.51104655	      0.00000000	    -65.74787688	      3.16949546	     -6.34332167
      7.10000000	     39.63795407	      3.70251066	      5.97636119	      1.52536496	      0.67955771	     -0.29307056	    -18.51388724	     -3.85345381	    -14.58363915	    -55.73786654	     13.86123399	      0.63080552	      0.00000000	    -33.79501008	      2.01625987	      1.21246383	    -15.12488658	     16.68472382	      9.70175175	      0.00000000	    -65.76532307	      3.25540485	     -6.51074642
      7.10500000	     39.58013788	      3.79539264	      6.14641206	      1.53005885	      0.67960004	     -0.29301683	    -18.01300632	     -3.81977708	    -14.69487477	    -54.41823640	     14.19670196	      0.92860184	      0.00000000	    -34.28359096	      1.92926748	      1.31924709	    -14.94671620	     17.02268796	      9.86719621	      0.00000000	    -65.77490300	      3.30653387	     -6.65222619
      7.11000000	     39.53078089	      3.90284673	      6.31785244	      1.53473942	      0.67958298	     -0.29296057	    -17.55676872	     -3.81059701	    -14.82672804	    -53.02340901	     14.47935146	      1.17500142	      0.00000000	    -34.77997280	      1.84971341	      1.43858419	    -14.76781088	     17.38244673	     10.04526067	      0.00000000	    -65.80551782	      3.34445215	     -6.79704250
      7.11500000	     39.48724751	      4.02059625	      6.46905711	      1.53943140	      0.67951178	     -0.29292016	    -17.14427077	     -3.82521159	    -14.94483880	    -51.54557187	     14.71177567	      1.34048565	      0.00000000	    -35.27536629	      1.79368795	      1.56043292	    -14.61259792	     17.73945131	     10.19630542	      0.00000000	    -65.83220080	      3.37472628	     -6.94363552
      7.12000000	     39.45530898	      4.15603653	      6.61501786	      1.54412364	      0.67938528	     -0.29287198	    -16.78511348	     -3.86492355	    -15.07618012	    -49.98953556	     14.89483667	      1.44413650	      0.00000000	    -35.77999777	      1.75233383	      1.69375253	    -14.46758089	     18.10382893	     10.33776026	      0.00000000	    -65.87244517	      3.39202276	     -7.09721579
      7.12500000	     39.42454513	      4.30613461	      6.74373079	      1.54882413	      0.67919846	     -0.29280833	    -16.46267386	     -3.92936822	    -15.20085304	    -48.36346274	     15.02984193	      1.49246366	      0.00000000	    -36.28145122	      1.73256082	      1.82818651	    -14.33854575	     18.46607567	     10.45269063	      0.00000000	    -65.91615914	      3.38643873	     -7.25133933
      7.13000000	     39.29147045	      4.47503678	      6.70033484	      1.55348292	      0.67883430	     -0.29266470	    -15.97409862	     -4.09791821	    -15.14207974	    -46.78376022	     15.15740404	      1.46196255	      0.00000000	    -36.66715019	      1.86566565	      1.89284578	    -14.22372145	     18.79313697	     10.43070341	      0.00000000	    -65.87364287	      3.22900395	     -7.32135300
      7.13500000	     39.37549990	      4.67515961	      6.94531430	      1.55821808	      0.67863344	     -0.29264883	    -15.93788762	     -4.16556113	    -15.45349509	    -44.91748873	     15.20485306	      1.45545980	      0.00000000	    -37.28787955	      1.78400441	      2.13085020	    -14.11777961	     19.18446155	     10.64195360	      0.00000000	    -66.02072620	      3.29598844	     -7.57619690
      7.14000000	     39.29468467	      4.82921629	      6.99020341	      1.56298535	      0.67823831	     -0.29258298	    -15.65172513	     -4.29538843	    -15.54325701	    -43.10707211	     15.19428254	      1.44910947	      0.00000000	    -37.73387969	      1.83051082	      2.22171489	    -14.01368995	     19.56234539	     10.70109860	      0.00000000	    -66.00232602	      3.23987616	     -7.70448738
      7.14500000	     39.14609655	      5.04198090	      6.89488425	      1.56769743	      0.67768163	     -0.29242719	    -15.25622269	     -4.54916677	    -15.49968596	    -41.33878229	     15.23455143	      1.40087287	      0.00000000	    -38.10174235	      2.03749168	      2.27199161	    -13.92719382	     19.90538516	     10.67576167	      0.00000000	    -65.93554754	      3.02152153	     -7.77516545
      7.15000000	     39.19861811	      5.26047268	      7.11082098	      1.57250156	      0.67730811	     -0.29239732	    -15.30329810	     -4.65965830	    -15.84725412	    -39.27208089	     15.10731922	      1.32328494	      0.00000000	    -38.68563754	      1.98352883	      2.48034233	    -13.84841322	     20.32312023	     10.90580105	      0.00000000	    -66.03728125	      3.06686909	     -8.06992242
      7.15500000	     39.24458592	      5.51580905	      7.17782864	      1.57730376	      0.67682248	     -0.29235412	    -15.33057840	     -4.88086655	    -16.09160220	    -37.22254513	     15.07401030	      1.38059912	      0.00000000	    -39.28574342	      2.07951726	      2.68131747	    -13.74153035	     20.64998177	     10.88629594	      0.00000000	    -66.13656969	      2.98465634	     -8.29375671
      7.16000000	     39.18045720	      5.75414770	      7.19627643	      1.58211510	      0.67621175	     -0.29223511	    -15.23070699	     -5.10799506	    -16.27685523	    -35.16144496	     14.96783256	      1.36033177	      0.00000000	    -39.74547547	      2.19869625	      2.79060572	    -13.67597671	     21.03711691	     10.99018590	      0.00000000	    -66.13273650	      2.85360160	     -8.46378850
